<svg width="293" height="517" viewBox="0 0 293 517" fill="none" xmlns="http://www.w3.org/2000/svg">
<path d="M74.993 0.0983425C76.7825 0.0945421 78.572 0.0900184 80.3615 0.0848342C85.1811 0.0732449 90.0007 0.0726403 94.8203 0.0748591C98.8583 0.0757976 102.896 0.0715189 106.934 0.0673534C116.464 0.0577083 125.994 0.0572773 135.524 0.0625686C145.329 0.0678416 155.133 0.0570785 164.938 0.038522C173.386 0.0231262 181.833 0.0179276 190.281 0.020762C195.314 0.0223375 200.346 0.0201002 205.379 0.00792794C210.11 -0.00309052 214.841 -0.00130237 219.573 0.0100307C221.301 0.012083 223.029 0.00974947 224.757 0.00250961C240.289 -0.0578372 254.904 0.884819 266.807 12.2387C276.043 22.7234 278.507 36.2061 280.673 49.6173C281.081 52.0983 281.495 54.5784 281.91 57.0583C282.015 57.6896 282.12 58.3209 282.227 58.9714C282.909 63.0282 283.689 67.0542 284.525 71.0812C286.563 80.9509 287.93 90.8489 289.12 100.857C289.447 103.601 289.784 106.344 290.123 109.087C292.083 125.113 292.91 140.844 292.935 156.993C292.943 160.183 292.97 163.372 292.997 166.562C293.058 180.248 292.105 193.512 290.145 207.05C290.025 207.888 289.906 208.727 289.783 209.591C289.344 212.669 288.899 215.746 288.446 218.822C287.922 222.391 287.491 225.932 287.259 229.533C286.507 240.944 284.182 251.674 281.388 262.726C279.561 270.044 278.407 277.112 278.089 284.676C277.74 288.636 276.828 292.011 275.577 295.755C273.684 301.929 272.886 308.032 272.249 314.428C271.311 323.777 270.117 332.849 267.729 341.943C266.77 345.986 266.335 350.023 265.967 354.16C265.858 355.357 265.858 355.357 265.747 356.578C265.009 365.198 264.772 373.81 264.628 382.458C264.603 383.726 264.603 383.726 264.578 385.02C264.313 398.84 264.269 412.655 264.318 426.477C264.323 427.86 264.323 427.86 264.328 429.271C264.359 437.737 264.4 446.203 264.459 454.67C264.492 459.387 264.511 464.105 264.523 468.822C264.53 470.587 264.542 472.352 264.558 474.117C264.68 487.104 264.331 497.742 255.159 507.745C249.275 513.261 242.115 515.886 234.151 515.947C233.298 515.956 232.445 515.964 231.566 515.973C230.173 515.98 230.173 515.98 228.752 515.988C227.763 515.997 226.774 516.005 225.756 516.014C222.461 516.042 219.166 516.064 215.87 516.085C213.543 516.103 211.215 516.122 208.888 516.14C202.011 516.195 195.135 516.241 188.258 516.287C185.05 516.308 181.843 516.331 178.635 516.353C164.707 516.45 150.778 516.538 136.849 516.62C129.573 516.662 122.297 516.71 115.021 516.761C107.224 516.816 99.4271 516.856 91.6298 516.883C88.9466 516.892 86.2636 516.908 83.5806 516.929C79.9358 516.957 76.2913 516.963 72.6464 516.967C71.6325 516.978 70.6185 516.989 69.5739 517C58.0811 516.969 46.7333 515.012 37.7578 507.278C31.5548 500.782 29.1312 491.786 29.1085 482.912C29.1038 481.917 29.0991 480.921 29.0943 479.895C29.0934 478.81 29.0925 477.725 29.0916 476.607C29.0849 474.842 29.0781 473.077 29.0713 471.312C29.0647 469.416 29.06 467.521 29.0558 465.625C29.0466 461.651 29.0291 457.677 29.0101 453.703C28.957 442.402 28.9105 431.101 28.8818 419.8C28.8658 413.557 28.8407 407.314 28.806 401.071C28.7881 397.779 28.7746 394.487 28.7726 391.195C28.7612 376.636 28.2879 362.359 26.1132 347.936C25.6693 344.971 25.2735 342 24.8771 339.028C24.384 335.389 23.8462 331.755 23.3072 328.122C23.1876 327.311 23.0679 326.5 22.9446 325.664C20.2185 307.359 16.7517 289.202 13.3011 271.026C9.88703 253.03 6.71445 235.064 4.66821 216.846C4.33881 214.598 3.91095 212.476 3.39504 210.27C2.47352 206.18 2.07934 202.153 1.79958 197.973C1.74467 197.204 1.68977 196.434 1.6332 195.641C1.51894 194.014 1.40766 192.387 1.29922 190.759C1.13719 188.351 0.961178 185.945 0.783733 183.538C-0.620512 163.684 -0.165087 144.526 2.37141 124.79C2.73726 121.84 3.0992 118.89 3.4609 115.94C3.6966 114.02 3.93385 112.1 4.17273 110.181C4.921 104.136 5.55258 98.0967 6.09758 92.03C7.1001 80.9427 9.10067 70.231 11.5643 59.3951C12.8804 53.5588 13.944 47.8087 14.5716 41.8595C15.1598 36.4586 16.292 31.8688 18.6788 26.9946C18.9862 26.3359 19.2937 25.6773 19.6105 24.9987C23.9375 15.9161 28.8918 7.88882 38.2691 3.55414C49.934 -0.496108 62.8257 0.0810826 74.993 0.0983425ZM55.1954 42.7555C53.8081 45.6323 53.3607 48.5527 52.908 51.6888C52.2138 56.2379 51.395 60.7212 50.4021 65.2147C48.7526 72.9001 47.6233 80.6503 46.5035 88.4303C46.3929 89.1987 46.2823 89.9671 46.1683 90.7589C45.7166 93.9029 45.2651 97.047 44.8179 100.192C44.1948 104.553 43.5228 108.902 42.7967 113.247C40.4846 127.704 39.9669 142.059 39.6684 156.68C39.6461 157.684 39.6238 158.689 39.6008 159.723C39.5413 162.62 39.4973 165.517 39.4599 168.414C39.4431 169.278 39.4263 170.142 39.4091 171.032C39.3712 175.898 39.7969 180.327 40.9022 185.067C41.6186 188.684 41.3282 192.311 41.14 195.975C41.0347 199.858 41.5487 203.252 42.474 207.025C43.8354 212.842 44.8045 218.661 45.6693 224.572C46.0041 226.8 46.3391 229.028 46.6744 231.256C46.8498 232.43 47.0251 233.604 47.2003 234.779C50.9931 260.167 55.2554 285.448 59.7599 310.716C61.3 319.357 62.8237 328 64.3144 336.65C64.4935 337.676 64.6727 338.703 64.8572 339.76C68.5282 361.198 68.9223 383.054 69.0365 404.767C69.051 407.422 69.071 410.078 69.0924 412.733C69.1524 420.264 69.2055 427.795 69.2492 435.327C69.2766 439.976 69.3121 444.625 69.3527 449.274C69.3665 451.033 69.3771 452.792 69.3845 454.551C69.395 456.994 69.4157 459.437 69.4389 461.879C69.4394 462.599 69.4399 463.318 69.4404 464.06C69.4862 467.708 69.6507 470.662 71.422 473.943C77.0066 477.203 84.0636 476.961 90.3127 476.887C91.1968 476.897 92.0809 476.907 92.9919 476.918C93.8383 476.914 94.6847 476.911 95.5567 476.908C96.3181 476.905 97.0795 476.902 97.864 476.899C100.199 476.498 100.959 475.781 102.422 473.943C101.581 472.936 101.581 472.936 100.723 471.909C98.1645 467.985 98.5309 463.959 98.6032 459.399C98.604 458.469 98.6048 457.538 98.6056 456.58C98.6091 454.557 98.6202 452.534 98.6382 450.511C98.6652 447.264 98.6683 444.018 98.665 440.771C98.6594 431.536 98.6927 422.302 98.7499 413.067C98.9182 383.333 97.5006 354.915 92.0887 325.669C91.7859 324.003 91.4837 322.336 91.182 320.669C89.7993 313.052 88.3817 305.443 86.9052 297.844C86.7552 297.072 86.6051 296.299 86.4505 295.504C86.3168 294.816 86.1831 294.128 86.0453 293.419C80.9755 267.242 76.3142 240.964 73.1333 214.476C72.6955 210.87 72.1756 207.329 71.459 203.769C68.9482 189.987 68.5522 175.906 68.6141 161.929C68.6234 159.457 68.6141 156.986 68.6032 154.515C68.5959 146.331 68.8397 138.208 69.5517 130.054C69.6113 129.329 69.6708 128.604 69.7321 127.857C71.0072 114.864 71.0072 114.864 74.7414 111.348C78.5397 109.06 82.351 109.244 86.6682 109.27C87.3403 109.27 88.0125 109.271 88.705 109.271C90.9592 109.274 93.2134 109.283 95.4676 109.292C97.0829 109.295 98.6982 109.298 100.314 109.3C103.793 109.306 107.272 109.314 110.752 109.324C116.251 109.34 121.75 109.349 127.25 109.356C142.888 109.377 158.527 109.408 174.165 109.447C182.801 109.468 191.437 109.483 200.073 109.492C205.543 109.497 211.012 109.511 216.481 109.53C219.88 109.541 223.28 109.544 226.679 109.544C228.258 109.546 229.837 109.551 231.415 109.559C233.567 109.57 235.719 109.57 237.871 109.567C238.498 109.573 239.126 109.578 239.773 109.584C242.905 109.568 245.339 109.476 247.95 107.619C250.749 101.95 248.507 93.8974 247.327 88.0316C246.361 83.2057 245.656 78.3707 244.99 73.4938C244.114 67.2343 242.847 61.3791 240.971 55.3411C240.058 52.1768 239.58 49.0417 239.238 45.7673C238.012 42.8326 236.024 41.9719 233.311 40.4592C230.847 40.1229 228.716 39.9735 226.258 39.9948C225.561 39.987 224.865 39.9792 224.147 39.9712C221.821 39.9495 219.495 39.9524 217.169 39.9554C215.498 39.9449 213.828 39.9329 212.157 39.9195C207.623 39.8878 203.09 39.8777 198.557 39.8719C193.811 39.8626 189.065 39.8352 184.319 39.8101C176.348 39.7708 168.378 39.7448 160.407 39.7275C151.195 39.7074 141.984 39.669 132.772 39.6202C123.908 39.5734 115.043 39.5367 106.179 39.5056C102.408 39.4923 98.6371 39.4761 94.8662 39.4574C90.424 39.4361 85.9819 39.4239 81.5396 39.4186C79.9105 39.4154 78.2815 39.4091 76.6524 39.3996C74.4261 39.3871 72.2001 39.3856 69.9738 39.3868C69.3315 39.3807 68.6891 39.3746 68.0274 39.3684C63.5197 39.3877 58.7045 39.6078 55.1954 42.7555Z" fill="black"/>
</svg>
